<mxfile host="app.diagrams.net" agent="Mozilla/5.0 (Windows NT 10.0; Win64; x64) AppleWebKit/537.36 (KHTML, like Gecko) Chrome/133.0.0.0 Safari/537.36" version="26.0.14">
  <diagram name="第 1 页" id="3jUZVEViRopHYDcyIWiC">
    <mxGraphModel dx="2595" dy="2554" grid="1" gridSize="10" guides="1" tooltips="1" connect="1" arrows="1" fold="1" page="1" pageScale="1" pageWidth="827" pageHeight="1169" math="0" shadow="0">
      <root>
        <mxCell id="0" />
        <mxCell id="1" parent="0" />
        <mxCell id="AzS7eBasfkwTEjujnU1a-3" value="" style="edgeStyle=orthogonalEdgeStyle;rounded=0;orthogonalLoop=1;jettySize=auto;html=1;" edge="1" parent="1" source="AzS7eBasfkwTEjujnU1a-1" target="AzS7eBasfkwTEjujnU1a-2">
          <mxGeometry relative="1" as="geometry" />
        </mxCell>
        <mxCell id="AzS7eBasfkwTEjujnU1a-1" value="开发提测" style="rounded=0;whiteSpace=wrap;html=1;" vertex="1" parent="1">
          <mxGeometry x="354" y="120" width="120" height="60" as="geometry" />
        </mxCell>
        <mxCell id="AzS7eBasfkwTEjujnU1a-10" value="" style="edgeStyle=orthogonalEdgeStyle;rounded=0;orthogonalLoop=1;jettySize=auto;html=1;" edge="1" parent="1" source="AzS7eBasfkwTEjujnU1a-2" target="AzS7eBasfkwTEjujnU1a-9">
          <mxGeometry relative="1" as="geometry" />
        </mxCell>
        <mxCell id="AzS7eBasfkwTEjujnU1a-2" value="测试更新服务" style="rounded=0;whiteSpace=wrap;html=1;" vertex="1" parent="1">
          <mxGeometry x="354" y="260" width="120" height="60" as="geometry" />
        </mxCell>
        <mxCell id="AzS7eBasfkwTEjujnU1a-14" value="" style="edgeStyle=orthogonalEdgeStyle;rounded=0;orthogonalLoop=1;jettySize=auto;html=1;" edge="1" parent="1" source="AzS7eBasfkwTEjujnU1a-9">
          <mxGeometry relative="1" as="geometry">
            <mxPoint x="600" y="80" as="targetPoint" />
          </mxGeometry>
        </mxCell>
        <mxCell id="AzS7eBasfkwTEjujnU1a-18" value="" style="edgeStyle=orthogonalEdgeStyle;rounded=0;orthogonalLoop=1;jettySize=auto;html=1;" edge="1" parent="1" source="AzS7eBasfkwTEjujnU1a-9" target="AzS7eBasfkwTEjujnU1a-17">
          <mxGeometry relative="1" as="geometry" />
        </mxCell>
        <mxCell id="AzS7eBasfkwTEjujnU1a-9" value="测试运行对应模块的自动化测试(确保老流程正常)" style="rhombus;whiteSpace=wrap;html=1;rounded=0;" vertex="1" parent="1">
          <mxGeometry x="266" y="360" width="296" height="190" as="geometry" />
        </mxCell>
        <mxCell id="AzS7eBasfkwTEjujnU1a-26" value="" style="edgeStyle=orthogonalEdgeStyle;rounded=0;orthogonalLoop=1;jettySize=auto;html=1;" edge="1" parent="1" source="AzS7eBasfkwTEjujnU1a-11" target="AzS7eBasfkwTEjujnU1a-1">
          <mxGeometry relative="1" as="geometry" />
        </mxCell>
        <mxCell id="AzS7eBasfkwTEjujnU1a-11" value="测试把新特性的用例导入metersphere" style="rounded=0;whiteSpace=wrap;html=1;" vertex="1" parent="1">
          <mxGeometry x="278" y="-20" width="272" height="60" as="geometry" />
        </mxCell>
        <mxCell id="AzS7eBasfkwTEjujnU1a-15" value="" style="endArrow=classic;html=1;rounded=0;" edge="1" parent="1">
          <mxGeometry width="50" height="50" relative="1" as="geometry">
            <mxPoint x="600" y="80" as="sourcePoint" />
            <mxPoint x="410" y="80" as="targetPoint" />
          </mxGeometry>
        </mxCell>
        <mxCell id="AzS7eBasfkwTEjujnU1a-16" value="不通过" style="text;html=1;align=center;verticalAlign=middle;whiteSpace=wrap;rounded=0;" vertex="1" parent="1">
          <mxGeometry x="590" y="310" width="60" height="30" as="geometry" />
        </mxCell>
        <mxCell id="AzS7eBasfkwTEjujnU1a-24" value="" style="edgeStyle=orthogonalEdgeStyle;rounded=0;orthogonalLoop=1;jettySize=auto;html=1;" edge="1" parent="1" source="AzS7eBasfkwTEjujnU1a-17" target="AzS7eBasfkwTEjujnU1a-23">
          <mxGeometry relative="1" as="geometry" />
        </mxCell>
        <mxCell id="AzS7eBasfkwTEjujnU1a-17" value="测试手工执行新特性的P0用例" style="rhombus;whiteSpace=wrap;html=1;rounded=0;" vertex="1" parent="1">
          <mxGeometry x="266" y="630" width="296" height="190" as="geometry" />
        </mxCell>
        <mxCell id="AzS7eBasfkwTEjujnU1a-19" value="" style="endArrow=classic;html=1;rounded=0;exitX=1;exitY=0.5;exitDx=0;exitDy=0;" edge="1" parent="1" source="AzS7eBasfkwTEjujnU1a-17">
          <mxGeometry width="50" height="50" relative="1" as="geometry">
            <mxPoint x="390" y="570" as="sourcePoint" />
            <mxPoint x="600" y="725" as="targetPoint" />
          </mxGeometry>
        </mxCell>
        <mxCell id="AzS7eBasfkwTEjujnU1a-20" value="" style="endArrow=classic;html=1;rounded=0;" edge="1" parent="1">
          <mxGeometry width="50" height="50" relative="1" as="geometry">
            <mxPoint x="600" y="730" as="sourcePoint" />
            <mxPoint x="600" y="450" as="targetPoint" />
          </mxGeometry>
        </mxCell>
        <mxCell id="AzS7eBasfkwTEjujnU1a-21" value="不通过" style="text;html=1;align=center;verticalAlign=middle;whiteSpace=wrap;rounded=0;" vertex="1" parent="1">
          <mxGeometry x="590" y="585" width="60" height="30" as="geometry" />
        </mxCell>
        <mxCell id="AzS7eBasfkwTEjujnU1a-22" value="通过" style="text;html=1;align=center;verticalAlign=middle;whiteSpace=wrap;rounded=0;" vertex="1" parent="1">
          <mxGeometry x="400" y="570" width="60" height="30" as="geometry" />
        </mxCell>
        <mxCell id="AzS7eBasfkwTEjujnU1a-43" value="" style="edgeStyle=orthogonalEdgeStyle;rounded=0;orthogonalLoop=1;jettySize=auto;html=1;" edge="1" parent="1" source="AzS7eBasfkwTEjujnU1a-23" target="AzS7eBasfkwTEjujnU1a-42">
          <mxGeometry relative="1" as="geometry" />
        </mxCell>
        <mxCell id="AzS7eBasfkwTEjujnU1a-23" value="测试在metersphere上创建测试计划, 关联要执行的用例" style="whiteSpace=wrap;html=1;rounded=0;" vertex="1" parent="1">
          <mxGeometry x="232" y="980" width="364" height="60" as="geometry" />
        </mxCell>
        <mxCell id="AzS7eBasfkwTEjujnU1a-29" value="" style="edgeStyle=orthogonalEdgeStyle;rounded=0;orthogonalLoop=1;jettySize=auto;html=1;" edge="1" parent="1" source="AzS7eBasfkwTEjujnU1a-27" target="AzS7eBasfkwTEjujnU1a-11">
          <mxGeometry relative="1" as="geometry" />
        </mxCell>
        <mxCell id="AzS7eBasfkwTEjujnU1a-27" value="开始" style="whiteSpace=wrap;html=1;rounded=0;" vertex="1" parent="1">
          <mxGeometry x="354" y="-160" width="120" height="60" as="geometry" />
        </mxCell>
        <mxCell id="AzS7eBasfkwTEjujnU1a-30" value="通过" style="text;html=1;align=center;verticalAlign=middle;whiteSpace=wrap;rounded=0;" vertex="1" parent="1">
          <mxGeometry x="400" y="880" width="60" height="30" as="geometry" />
        </mxCell>
        <mxCell id="AzS7eBasfkwTEjujnU1a-45" value="" style="edgeStyle=orthogonalEdgeStyle;rounded=0;orthogonalLoop=1;jettySize=auto;html=1;" edge="1" parent="1" source="AzS7eBasfkwTEjujnU1a-42" target="AzS7eBasfkwTEjujnU1a-44">
          <mxGeometry relative="1" as="geometry" />
        </mxCell>
        <mxCell id="AzS7eBasfkwTEjujnU1a-42" value="执行测试计划" style="whiteSpace=wrap;html=1;rounded=0;" vertex="1" parent="1">
          <mxGeometry x="354" y="1120" width="120" height="60" as="geometry" />
        </mxCell>
        <mxCell id="AzS7eBasfkwTEjujnU1a-44" value="发版成功, 整理用例" style="whiteSpace=wrap;html=1;rounded=0;" vertex="1" parent="1">
          <mxGeometry x="354" y="1260" width="120" height="60" as="geometry" />
        </mxCell>
      </root>
    </mxGraphModel>
  </diagram>
</mxfile>
